<svg width="20" height="20" viewBox="0 0 20 20" fill="none" xmlns="http://www.w3.org/2000/svg">
<path d="M2.045 6.61623C2.27941 6.38189 2.59729 6.25024 2.92875 6.25024C3.2602 6.25024 3.57809 6.38189 3.8125 6.61623L9.99999 12.8037L16.1875 6.61623C16.4232 6.38853 16.739 6.26254 17.0667 6.26538C17.3945 6.26823 17.708 6.39969 17.9397 6.63145C18.1715 6.86321 18.303 7.17673 18.3058 7.50448C18.3087 7.83222 18.1827 8.14797 17.955 8.38373L10.8837 15.455C10.6493 15.6893 10.3314 15.821 9.99999 15.821C9.66853 15.821 9.35065 15.6893 9.11624 15.455L2.045 8.38373C1.81066 8.14932 1.67902 7.83143 1.67902 7.49998C1.67902 7.16852 1.81066 6.85064 2.045 6.61623Z" fill="black"/>
</svg>
