<svg width="20" height="23" viewBox="0 0 20 23" fill="none" xmlns="http://www.w3.org/2000/svg">
<path d="M11.4286 0H14.2571C14.4629 1.02143 15.0286 2.31 16.0214 3.58857C16.9929 4.84143 18.2814 5.71428 20 5.71428V8.57143C17.4957 8.57143 15.6143 7.40857 14.2857 5.95857V15.7143C14.2857 17.127 13.8668 18.508 13.0819 19.6826C12.2971 20.8573 11.1815 21.7728 9.87631 22.3134C8.57113 22.854 7.13494 22.9955 5.74936 22.7199C4.36378 22.4443 3.09104 21.764 2.0921 20.765C1.09315 19.7661 0.41286 18.4934 0.137251 17.1078C-0.138357 15.7222 0.00309489 14.286 0.543721 12.9808C1.08435 11.6756 1.99986 10.5601 3.1745 9.77522C4.34914 8.99035 5.73014 8.57143 7.14286 8.57143V11.4286C6.29523 11.4286 5.46663 11.6799 4.76184 12.1508C4.05706 12.6218 3.50775 13.2911 3.18338 14.0742C2.859 14.8573 2.77413 15.719 2.93949 16.5504C3.10486 17.3817 3.51303 18.1454 4.1124 18.7447C4.71177 19.3441 5.47541 19.7523 6.30676 19.9176C7.13811 20.083 7.99982 19.9981 8.78293 19.6738C9.56604 19.3494 10.2354 18.8001 10.7063 18.0953C11.1772 17.3905 11.4286 16.5619 11.4286 15.7143V0Z" fill="#F4F4F4"/>
</svg>
